<svg width="190" height="135" viewBox="0 0 190 135" fill="none" xmlns="http://www.w3.org/2000/svg">
<path d="M155.119 41.6322C154.374 41.9775 153.983 41.539 153.586 41.2817C151.244 39.7634 148.762 38.407 146.282 37.0468C144.85 36.2613 144.858 35.864 146.237 34.9077C151.125 31.5176 156.012 28.1267 160.897 24.7327C161.159 24.5504 161.417 24.402 162.234 24.5384C160.527 30.4091 158.074 36.0374 155.119 41.6322ZM155.847 38.3657C157.756 34.4796 159.498 30.5526 160.413 26.3743C155.475 29.4059 150.774 32.5337 146.237 36.0626C149.182 37.7529 151.859 39.2899 154.648 40.8909C155.082 39.9816 155.421 39.2713 155.847 38.3657Z" fill="white"/>
<path fill-rule="evenodd" clip-rule="evenodd" d="M5.935 94.6785C12.6239 98.1102 19.7927 100.811 26.8979 103.686C24.5116 104.544 22.0342 103.938 19.6088 104.415C27.4236 108.568 35.2843 112.606 43.3319 116.405C58.2371 123.442 73.5525 129.725 90.2325 133.546C92.7496 134.122 95.194 134.572 97.882 133.984C107.985 131.772 117.626 128.587 127.05 124.957C140.558 119.755 153.228 113.347 165.818 106.835C167.229 106.105 168.582 105.3 170.223 104.385C167.507 104.082 165.079 104.345 162.286 103.619C171.827 100.128 180.883 96.6808 188.959 91.9022C188.891 91.6892 188.892 91.6361 188.861 91.604C188.689 91.4279 188.507 91.2581 188.332 91.0842C185.036 87.813 182.258 84.3935 181.58 80.0013C180.684 74.1957 178.913 68.5169 176.854 62.9158C175.811 60.0807 174.364 57.3471 175.76 54.3219C176.006 53.7887 176.041 53.1901 176.162 52.6201C177.03 48.5436 177.522 44.4358 177.913 40.3106C178.349 35.7114 178.327 31.1033 178.057 26.5225C177.758 21.4711 176.921 16.4342 176.121 11.4118C175.662 8.52501 175.243 5.61252 174.211 2.80518C173.511 0.901988 171.612 0.151531 169.456 0.93253C162.408 3.48616 155.588 6.40018 148.981 9.64051C139.941 14.0736 131.404 19.0847 123.237 24.5176C122.479 25.0223 121.754 25.1951 120.798 24.9252C114.921 23.2672 108.813 22.4537 102.664 21.9492C97.4833 21.5242 92.2513 21.7055 87.068 21.9825C81.3266 22.2894 75.6329 23.1558 70.1928 24.6796C68.0851 25.2699 66.8695 24.7481 65.4675 23.8106C59.1205 19.5665 52.4578 15.6723 45.5055 12.1171C37.4239 7.98444 29.0853 4.22504 20.3452 1.08025C18.2073 0.310993 16.8005 0.738869 15.9151 2.41336C15.6339 2.94524 15.4148 3.51708 15.3062 4.08811C14.6902 7.32574 13.9155 10.5401 13.3388 13.7858C12.4763 18.6402 11.8983 23.5118 11.6897 28.4014C11.5091 32.6338 11.5804 36.8742 11.9538 41.112C12.3477 45.5831 12.9696 50.0222 13.8224 54.4498C14.1486 56.1432 15.1712 57.821 14.3165 59.606C13.6535 60.9906 13.0724 62.3937 12.5931 63.8343C10.9177 68.8701 9.5322 73.9508 8.6187 79.1171C8.06154 82.2681 7.09237 85.3009 4.59452 87.8745C3.36906 89.1371 2.21618 90.4464 0.944107 91.8283C2.48794 92.8779 4.09413 93.7424 5.935 94.6785ZM159.536 70.3937C150.981 72.7428 142.325 74.8561 133.826 77.655C133.041 77.9176 132.378 78.1466 131.708 78.3624C123.571 80.9848 115.807 84.1062 109.39 89.1082C107.493 90.5862 105.787 92.1668 104.376 93.96C103.445 95.1446 103.756 95.6288 105.405 95.8662C107.281 96.1364 109.073 95.7227 110.778 95.2984C112.068 94.9774 112.686 95.2998 113.475 95.9708C120.232 101.717 128.303 104.211 138.096 102.623C145.784 101.376 151.566 97.9617 155.72 92.6531C160.899 86.0339 161.538 78.6406 161.104 71.0829C161.052 70.1761 160.516 70.1248 159.536 70.3937ZM146.835 43.4253C151.804 46.0803 156.36 49.154 160.515 52.7565C162.83 54.8419 164.897 56.9717 166.824 59.2697C172.183 53.0308 172.757 16.1922 167.578 10.558C155.069 18.8879 142.806 27.4248 130.653 36.5123C136.604 38.6009 141.881 40.7783 146.835 43.4253ZM21.9656 10.4361C19.8761 17.5714 19.0751 24.5418 18.6664 31.6827C18.6156 32.168 18.5495 32.5274 18.5482 32.887C18.5221 40.2222 19.3272 47.4907 21.3513 54.6474C21.7881 56.192 22.0861 57.8033 23.2192 59.3457C31.8344 48.2639 44.6367 41.7105 59.22 36.5066C46.9057 27.5489 34.922 18.776 21.9656 10.4361ZM82.3139 90.5735C77.0207 85.9866 70.4782 82.908 63.4398 80.2468C52.3762 76.1697 40.9744 73.1698 29.6265 70.2275C29.0037 70.8589 29.1109 71.4248 29.0735 71.9496C28.742 76.605 29.1705 81.2117 30.7396 85.7059C33.2648 92.9384 38.365 98.4613 47.0971 101.409C51.5707 102.919 56.2469 103.514 61.0678 102.781C67.2108 101.847 72.3428 99.3975 76.5997 95.7132C77.2971 95.1096 77.9952 94.9626 78.9661 95.1942C80.8823 95.6513 82.8381 95.9302 84.8578 95.8345C86.4264 95.7602 86.7502 95.3769 85.9503 94.2523C84.9745 92.8803 83.6422 91.7246 82.3139 90.5735ZM96.7193 111.185C98.3183 110.076 99.924 108.973 101.613 107.802C102.381 107.148 103.103 106.586 103.737 105.963C105.152 104.573 104.819 103.67 102.63 103.326C97.7592 102.562 92.8533 102.611 87.9843 103.321C85.6634 103.659 85.3178 104.553 86.8516 105.986C88.8893 107.89 91.156 109.608 93.5933 111.18C94.6805 111.881 95.6703 111.913 96.7193 111.185Z" fill="white"/>
<path d="M163.868 113.104C155.347 117.937 146.938 122.895 138.756 128.119C139.272 128.069 139.751 127.973 140.203 127.823C145.793 125.969 151.352 124.057 156.61 121.624C164.764 117.851 172.619 113.743 179.321 108.319C182.431 105.802 185.049 102.999 187.207 99.8785C179.288 104.026 171.637 108.464 163.868 113.104Z" fill="white"/>
<path d="M22.4566 110.774C16.0488 107.092 9.62662 103.427 2.91919 99.8535C2.99041 100.645 3.41973 101.114 3.78499 101.603C6.2565 104.915 9.49788 107.686 13.0181 110.254C21.183 116.209 30.5234 120.692 40.3471 124.544C43.7641 125.884 47.2078 127.208 50.9468 127.934C41.7741 121.954 32.0472 116.602 22.4566 110.774Z" fill="white"/>
<path d="M155.847 38.3657C157.756 34.4796 159.498 30.5526 160.413 26.3743C155.475 29.4059 150.774 32.5337 146.237 36.0626L154.648 40.8909C155.082 39.9816 155.421 39.2713 155.847 38.3657Z" fill="white"/>
<path d="M35.7452 30.3796C33.5961 28.9655 31.7188 27.2685 29.1415 26.1914C30.5769 31.1431 32.4 35.9352 34.9085 40.7979L43.476 35.8579C40.8322 33.9832 38.3791 32.2437 35.7452 30.3796Z" fill="white"/>
</svg>
