<svg width="24" height="24" viewBox="0 0 24 24" fill="none" xmlns="http://www.w3.org/2000/svg">
<path d="M10.044 0.000218479C6.87357 0.525784 4.12916 2.3099 2.30954 4.82824C3.77687 5.52711 5.12486 6.13508 6.50696 6.60239C7.20583 3.51856 8.48578 1.11804 10.044 0.000218479ZM13.9687 0.000218479C15.5454 1.13659 16.8266 3.5954 17.517 6.74025C19.0155 6.25446 20.4005 5.58682 21.7144 4.83966C19.8962 2.31408 17.1406 0.52982 13.9672 0L13.9687 0.000218479ZM12 0.345391C9.82242 0.345391 7.94473 2.96896 7.02983 6.77451C8.54971 7.24327 10.1434 7.53731 12.0112 7.56997C13.8209 7.60122 15.47 7.34837 17.0039 6.90236C16.1005 3.02744 14.2014 0.345609 11.9996 0.345609L12 0.345391ZM1.87642 5.44905C0.741484 7.24593 0.066763 9.36397 0 11.6367H5.9374C5.95871 10.1211 6.10359 8.6779 6.35783 7.33851C4.86352 6.84134 3.42462 6.18767 1.87642 5.44905ZM22.1221 5.44905C20.7428 6.23741 19.2712 6.95189 17.6632 7.46469C17.9032 8.76866 18.041 10.1664 18.0609 11.6353H23.9983C23.9316 9.3611 23.2568 7.24324 22.1219 5.44759L22.1221 5.44905ZM6.86947 7.50018C6.61237 8.78001 6.45896 10.1721 6.43765 11.6366H17.5612C17.5399 10.2161 17.395 8.86524 17.1521 7.61509C15.5655 8.07389 13.8567 8.33811 11.9889 8.30684C10.0713 8.27417 8.43065 7.97587 6.8711 7.5L6.86947 7.50018ZM7.28254e-05 12.3751C0.068254 14.6521 0.750066 16.7657 1.88784 18.5628C3.43186 17.8242 4.8665 17.1608 6.35798 16.6622C6.10514 15.3312 5.9574 13.8852 5.93755 12.3767H0.000144957L7.28254e-05 12.3751ZM6.43747 12.3751C6.45878 13.8353 6.60224 15.2359 6.8579 16.5115C8.42182 16.0314 10.0653 15.726 11.9869 15.6933C13.8591 15.6606 15.5721 15.9248 17.1614 16.3851C17.4015 15.1436 17.5379 13.7885 17.5592 12.3752H6.43565L6.43747 12.3751ZM18.0625 12.3751C18.0426 13.8368 17.9019 15.2373 17.6647 16.5344C19.2727 17.0486 20.7443 17.7617 22.1236 18.55C23.2571 16.756 23.9332 14.6453 24 12.374H18.0626L18.0625 12.3751ZM12.0112 16.4304C10.1377 16.4631 8.54109 16.7514 7.01855 17.2259C7.93331 21.0328 9.81966 23.6433 12 23.6433C14.2031 23.6433 16.1007 20.98 17.0043 17.1106C15.4688 16.6631 13.8211 16.3989 12.0116 16.4302L12.0112 16.4304ZM17.5283 17.2599C16.8365 20.4219 15.5354 22.8749 13.9459 24C17.1291 23.4758 19.892 21.6917 21.7142 19.1603C20.4045 18.4146 19.0227 17.7443 17.5283 17.2599ZM6.50692 17.3977C5.12483 17.8679 3.77684 18.4844 2.30951 19.1833C4.12909 21.6975 6.87746 23.4745 10.044 24C8.48149 22.8878 7.20437 20.4871 6.50692 17.3977Z" fill="white"/>
</svg>
