<svg width="34" height="34" viewBox="0 0 34 34" fill="none" xmlns="http://www.w3.org/2000/svg">
<g clip-path="url(#clip0_197_5691)">
<path d="M26.1016 20.603C27.5292 20.5426 28.6727 19.3991 28.733 17.9716C28.7355 17.9131 28.7355 17.8481 28.7355 17.7636L28.7355 16.4943C28.7355 15.2171 28.083 14.0285 27.0054 13.3428C20.8919 9.45234 13.079 9.45234 6.96552 13.3428C5.888 14.0285 5.23548 15.2171 5.23548 16.4943V17.7635C5.23547 17.848 5.23546 17.9131 5.23794 17.9716C5.29829 19.3991 6.44179 20.5426 7.86932 20.603C7.92781 20.6054 7.99289 20.6054 8.07743 20.6054L10.1553 20.6054C11.5979 20.6054 12.8935 19.7224 13.421 18.3797C13.723 17.6109 14.4648 17.1054 15.2907 17.1054L18.6803 17.1054C19.5062 17.1054 20.2479 17.6109 20.5499 18.3797C21.0774 19.7224 22.373 20.6054 23.8157 20.6054L25.8936 20.6054C25.9781 20.6054 26.0432 20.6054 26.1016 20.603Z" fill="#FAFAFA"/>
</g>
<defs>
<clipPath id="clip0_197_5691">
<rect width="24" height="24" fill="white" transform="translate(33.9412 16.9707) rotate(135)"/>
</clipPath>
</defs>
</svg>
