<svg width="20" height="20" viewBox="0 0 20 20" fill="none" xmlns="http://www.w3.org/2000/svg">
<path d="M5.86183 0.72505C4.80974 -0.241683 3.19259 -0.241683 2.1405 0.72505C2.09741 0.764641 2.05142 0.810649 1.99169 0.870391L1.09419 1.76788C0.191081 2.671 -0.188038 3.97292 0.0890243 5.2197C1.66099 12.2936 7.18553 17.8181 14.2594 19.3901C15.5062 19.6671 16.8081 19.288 17.7112 18.3849L18.6086 17.4875C18.6684 17.4277 18.7144 17.3817 18.754 17.3386C19.7208 16.2865 19.7208 14.6693 18.754 13.6173C18.7144 13.5741 18.6684 13.5281 18.6086 13.4684L17.1394 11.9991C16.1193 10.979 14.5787 10.6872 13.2563 11.2637C12.4992 11.5937 11.6172 11.4267 11.0332 10.8427L8.63639 8.44589C8.05239 7.86188 7.88536 6.97994 8.21538 6.22283C8.79184 4.90037 8.50009 3.35984 7.47999 2.33974L6.01066 0.870406C5.95093 0.810657 5.90492 0.764645 5.86183 0.72505Z" fill="#FAFAFA"/>
<path d="M18.6445 1.40165C18.9374 1.10876 18.9374 0.633886 18.6445 0.340993C18.3516 0.0481 17.8767 0.0480999 17.5839 0.340993L15.9929 1.93198L14.4019 0.340993C14.109 0.0481001 13.6341 0.0481001 13.3412 0.340993C13.0483 0.633887 13.0483 1.10876 13.3412 1.40165L14.9322 2.99264L13.3412 4.58363C13.0483 4.87653 13.0483 5.3514 13.3412 5.64429C13.6341 5.93719 14.109 5.93719 14.4019 5.64429L15.9929 4.0533L17.5839 5.64429C17.8767 5.93719 18.3516 5.93719 18.6445 5.64429C18.9374 5.3514 18.9374 4.87653 18.6445 4.58363L17.0535 2.99264L18.6445 1.40165Z" fill="#FAFAFA"/>
</svg>
