<svg width="24" height="24" viewBox="0 0 24 24" fill="none" xmlns="http://www.w3.org/2000/svg">
<path d="M20 6.1458V13.5408C19.9995 14.1097 19.7739 14.6552 19.3729 15.0575C18.9718 15.4598 18.428 15.686 17.8609 15.6866H10.801V11.5227C10.7999 10.8403 10.5292 10.1862 10.0482 9.70367C9.56719 9.22116 8.91512 8.94961 8.23488 8.94852H4.8086V6.1458C4.80914 5.57687 5.03469 5.03139 5.43573 4.62909C5.83677 4.22679 6.38055 4.00055 6.94771 4H17.8609C18.428 4.00055 18.9718 4.22679 19.3729 4.62909C19.7739 5.03139 19.9995 5.57687 20 6.1458ZM16.2329 16.7162H10.801V17.4555C10.8006 18.0131 10.6189 18.5553 10.2837 19H18.682V17.9703H16.8468L16.2329 16.7162ZM9.77454 11.5227V17.4555C9.77454 17.8651 9.61233 18.258 9.32359 18.5476C9.03484 18.8373 8.64322 19 8.23488 19H4.53967C4.13132 19 3.7397 18.8373 3.45096 18.5476C3.16221 18.258 3 17.8651 3 17.4555V11.5227C3 11.113 3.16221 10.7202 3.45096 10.4305C3.7397 10.1409 4.13132 9.97817 4.53967 9.97817H8.23488C8.64322 9.97817 9.03484 10.1409 9.32359 10.4305C9.61233 10.7202 9.77454 11.113 9.77454 11.5227ZM7.26386 16.3929H5.50453V17.4226H7.26386V16.3929Z" fill="white"/>
</svg>
