<svg width="24" height="24" viewBox="0 0 24 24" fill="none" xmlns="http://www.w3.org/2000/svg">
<path d="M10.7415 21.3569C10.4723 21.3569 10.2526 21.153 10.2526 20.9013C10.2526 20.6497 10.4714 20.4458 10.7415 20.4458H14.2606C14.5306 20.4458 14.7494 20.6497 14.7494 20.9013C14.7494 21.1521 14.5306 21.3569 14.2606 21.3569H10.7415ZM16.2257 4.06235C15.9557 4.06235 15.7368 3.85842 15.7368 3.60679C15.7368 3.35517 15.9556 3.15123 16.2257 3.15123H16.8901C17.1593 3.15123 17.379 3.35516 17.379 3.60679C17.379 3.85841 17.1602 4.06235 16.8901 4.06235H16.2257ZM10.8799 4.06235C10.6108 4.06235 10.3911 3.85842 10.3911 3.60679C10.3911 3.35517 10.6099 3.15123 10.8799 3.15123H14.1212C14.3912 3.15123 14.61 3.35516 14.61 3.60679C14.61 3.85841 14.3912 4.06235 14.1212 4.06235H10.8799ZM19 19.1055C18.4379 19.6038 17.6772 19.9122 16.8442 19.9122H8.15578C7.32365 19.9122 6.56299 19.6038 6 19.1055V19.9919C6 20.5445 6.24266 21.0469 6.63183 21.4112C7.02275 21.7739 7.56191 22 8.1549 22H16.8433C17.4372 22 17.9763 21.7739 18.3655 21.4112C18.7564 21.0469 18.9991 20.5445 18.9991 19.9911V19.1055H19ZM6.0009 16.9931C6.0009 17.5456 6.24357 18.0481 6.63361 18.4123C7.02453 18.7758 7.56369 19.0019 8.15669 19.0019H16.8451C17.4372 19.0019 17.9764 18.775 18.3664 18.4115C18.7573 18.0472 19 17.5448 19 16.9931V4.00888C19 3.45548 18.7573 2.95306 18.3682 2.59041C17.9773 2.22613 17.4381 2 16.8442 2H8.1558C7.56281 2 7.02277 2.22613 6.63273 2.58877C6.24357 2.95306 6.0009 3.45548 6.0009 4.00806V16.9931Z" fill="white"/>
</svg>
