<svg width="24" height="24" viewBox="0 0 24 24" xmlns="http://www.w3.org/2000/svg">
  <path fill="#000" d="m2.8 4.2 17 17 1.4-1.4-17-17-1.4 1.4ZM12 5c5.9 0 9.9 5.6 11 7-.7.9-2 2.6-4 4.1l-2.1-2.1A3.8 3.8 0 0 0 10 9.1L7.9 7C9.2 6.3 10.5 5.9 12 5Zm-9 7c.8 1 2.8 3.7 6 5.4l-2-2A9.8 9.8 0 0 1 3 12Zm9 4.8c-1 0-1.9-.2-2.7-.5l-1.8 1.8c1.3.6 2.8.9 4.5.9 5.9 0 9.9-5.6 11-7-.6-.8-1.6-2.1-3.1-3.4l-1.5 1.5c1.1.9 1.9 1.8 2.5 2.5-1.1 1.4-5.1 6.2-10.9 6.2Zm0-6a1.9 1.9 0 0 0 1.9-1.9c0-.3-.1-.6-.2-.9l-2.6-2.6c-.3.1-.6.2-.9.2A1.9 1.9 0 0 0 12 14.8Z"/>
</svg>
