<svg width="24" height="24" viewBox="0 0 24 24" xmlns="http://www.w3.org/2000/svg">
  <path fill="#000" d="m2.8 4.2 17 17 1.4-1.4-17-17-1.4 1.4ZM12 18a2 2 0 1 0 0 4 2 2 0 0 0 0-4Zm6.7-3.9A10.6 10.6 0 0 0 12 12c-1.5 0-3 .3-4.2.9l1.7 1.7c.8-.2 1.6-.4 2.5-.4 1.6 0 3.1.4 4.4 1.1l2.3-1.2ZM12 4a16.7 16.7 0 0 0-9.6 3l1.5 1.5A14.4 14.4 0 0 1 12 6.3c3.7 0 7 1.3 9.6 3.5l1.4-1.4A16.6 16.6 0 0 0 12 4Zm0 4.4a13 13 0 0 0-5.6 1.2l1.6 1.6A10.5 10.5 0 0 1 12 10.8c2.2 0 4.3.6 6 1.8l1.6-1.6A13 13 0 0 0 12 8.4Z"/>
</svg>
