<svg width="256" height="256" viewBox="0 0 256 256" fill="none" xmlns="http://www.w3.org/2000/svg">
<path d="M0 128C0 57.3076 57.3076 0 128 0C198.692 0 256 57.3076 256 128C256 198.692 198.692 256 128 256C57.3076 256 0 198.692 0 128Z" fill="url(#paint0_linear_14_8)"/>
<path d="M188.119 101.632C187.374 101.977 186.983 101.539 186.586 101.282C184.244 99.7634 181.762 98.407 179.282 97.0468C177.85 96.2613 177.858 95.864 179.237 94.9077C184.125 91.5176 189.012 88.1267 193.897 84.7327C194.159 84.5504 194.417 84.402 195.234 84.5384C193.527 90.4091 191.074 96.0374 188.119 101.632ZM188.847 98.3657C190.756 94.4796 192.498 90.5526 193.413 86.3744C188.475 89.4059 183.774 92.5337 179.237 96.0626C182.182 97.7529 184.859 99.2899 187.648 100.891C188.082 99.9816 188.421 99.2713 188.847 98.3657Z" fill="white"/>
<path fill-rule="evenodd" clip-rule="evenodd" d="M38.935 154.679C45.6239 158.11 52.7927 160.811 59.8979 163.686C57.5116 164.544 55.0342 163.938 52.6088 164.415C60.4236 168.568 68.2843 172.606 76.3319 176.405C91.2371 183.442 106.553 189.725 123.232 193.546C125.75 194.122 128.194 194.572 130.882 193.984C140.985 191.772 150.626 188.587 160.05 184.957C173.558 179.755 186.228 173.347 198.818 166.835C200.229 166.105 201.582 165.3 203.223 164.385C200.507 164.082 198.079 164.345 195.286 163.619C204.827 160.128 213.883 156.681 221.959 151.902C221.891 151.689 221.892 151.636 221.861 151.604C221.689 151.428 221.507 151.258 221.332 151.084C218.036 147.813 215.258 144.394 214.58 140.001C213.684 134.196 211.913 128.517 209.854 122.916C208.812 120.081 207.364 117.347 208.76 114.322C209.006 113.789 209.041 113.19 209.162 112.62C210.03 108.544 210.522 104.436 210.913 100.311C211.349 95.7114 211.327 91.1033 211.057 86.5225C210.758 81.4711 209.921 76.4342 209.121 71.4118C208.662 68.525 208.243 65.6125 207.211 62.8052C206.511 60.902 204.612 60.1515 202.456 60.9325C195.408 63.4862 188.588 66.4002 181.981 69.6405C172.941 74.0736 164.404 79.0847 156.237 84.5176C155.479 85.0223 154.754 85.1951 153.798 84.9252C147.921 83.2672 141.813 82.4537 135.664 81.9492C130.483 81.5242 125.251 81.7055 120.068 81.9825C114.327 82.2894 108.633 83.1558 103.193 84.6796C101.085 85.27 99.8695 84.7481 98.4675 83.8106C92.1205 79.5665 85.4578 75.6723 78.5055 72.1171C70.4239 67.9844 62.0853 64.225 53.3452 61.0803C51.2073 60.311 49.8005 60.7389 48.9151 62.4134C48.6339 62.9452 48.4148 63.5171 48.3062 64.0881C47.6902 67.3257 46.9155 70.5401 46.3388 73.7858C45.4763 78.6402 44.8983 83.5118 44.6897 88.4014C44.5091 92.6338 44.5804 96.8742 44.9538 101.112C45.3477 105.583 45.9696 110.022 46.8224 114.45C47.1486 116.143 48.1712 117.821 47.3165 119.606C46.6535 120.991 46.0724 122.394 45.5932 123.834C43.9177 128.87 42.5322 133.951 41.6187 139.117C41.0615 142.268 40.0924 145.301 37.5945 147.875C36.3691 149.137 35.2162 150.446 33.9441 151.828C35.4879 152.878 37.0941 153.742 38.935 154.679ZM192.536 130.394C183.981 132.743 175.325 134.856 166.826 137.655C166.041 137.918 165.378 138.147 164.708 138.362C156.571 140.985 148.807 144.106 142.39 149.108C140.493 150.586 138.787 152.167 137.376 153.96C136.445 155.145 136.756 155.629 138.405 155.866C140.281 156.136 142.073 155.723 143.778 155.298C145.068 154.977 145.686 155.3 146.475 155.971C153.232 161.717 161.303 164.211 171.096 162.623C178.784 161.376 184.566 157.962 188.72 152.653C193.899 146.034 194.538 138.641 194.104 131.083C194.052 130.176 193.516 130.125 192.536 130.394ZM179.835 103.425C184.804 106.08 189.36 109.154 193.515 112.757C195.83 114.842 197.897 116.972 199.824 119.27C205.183 113.031 205.757 76.1922 200.578 70.558C188.069 78.8879 175.806 87.4248 163.653 96.5123C169.604 98.6009 174.881 100.778 179.835 103.425ZM54.9656 70.4361C52.8761 77.5714 52.0751 84.5418 51.6664 91.6827C51.6156 92.168 51.5495 92.5274 51.5482 92.887C51.5221 100.222 52.3272 107.491 54.3513 114.647C54.7881 116.192 55.0861 117.803 56.2192 119.346C64.8344 108.264 77.6367 101.711 92.22 96.5066C79.9057 87.5489 67.922 78.776 54.9656 70.4361ZM115.314 150.574C110.021 145.987 103.478 142.908 96.4398 140.247C85.3762 136.17 73.9744 133.17 62.6265 130.227C62.0037 130.859 62.1109 131.425 62.0735 131.95C61.742 136.605 62.1706 141.212 63.7396 145.706C66.2648 152.938 71.365 158.461 80.0971 161.409C84.5707 162.919 89.2469 163.514 94.0678 162.781C100.211 161.847 105.343 159.398 109.6 155.713C110.297 155.11 110.995 154.963 111.966 155.194C113.882 155.651 115.838 155.93 117.858 155.835C119.426 155.76 119.75 155.377 118.95 154.252C117.975 152.88 116.642 151.725 115.314 150.574ZM129.719 171.185C131.318 170.076 132.924 168.973 134.613 167.802C135.381 167.148 136.103 166.586 136.737 165.963C138.152 164.573 137.819 163.67 135.63 163.326C130.759 162.562 125.853 162.611 120.984 163.321C118.663 163.659 118.318 164.553 119.852 165.986C121.889 167.89 124.156 169.608 126.593 171.18C127.68 171.881 128.67 171.913 129.719 171.185Z" fill="white"/>
<path d="M196.868 173.104C188.347 177.937 179.938 182.895 171.756 188.119C172.272 188.069 172.751 187.973 173.203 187.823C178.793 185.969 184.352 184.057 189.61 181.624C197.764 177.851 205.619 173.743 212.321 168.319C215.431 165.802 218.049 162.999 220.207 159.879C212.288 164.026 204.637 168.464 196.868 173.104Z" fill="white"/>
<path d="M55.4566 170.774C49.0488 167.092 42.6266 163.427 35.9192 159.854C35.9904 160.645 36.4197 161.114 36.785 161.603C39.2565 164.915 42.4979 167.686 46.0181 170.254C54.183 176.209 63.5234 180.692 73.3471 184.544C76.7641 185.884 80.2078 187.208 83.9468 187.934C74.7741 181.954 65.0472 176.602 55.4566 170.774Z" fill="white"/>
<path d="M188.847 98.3657C190.756 94.4796 192.498 90.5526 193.413 86.3744C188.475 89.4059 183.774 92.5337 179.237 96.0626L187.648 100.891C188.082 99.9816 188.421 99.2713 188.847 98.3657Z" fill="white"/>
<path d="M68.7452 90.3796C66.5961 88.9655 64.7188 87.2685 62.1415 86.1914C63.5769 91.1431 65.4 95.9353 67.9085 100.798L76.476 95.8578C73.8322 93.9832 71.3791 92.2437 68.7452 90.3796Z" fill="white"/>
<defs>
<linearGradient id="paint0_linear_14_8" x1="128" y1="0" x2="128" y2="256" gradientUnits="userSpaceOnUse">
<stop/>
<stop offset="1"/>
</linearGradient>
</defs>
</svg>
